<svg width="220" height="220" viewBox="0 0 220 220" fill="none" xmlns="http://www.w3.org/2000/svg">
<circle cx="110" cy="110" r="110" fill="#FECC00"/>
<path d="M129.011 60.3296H90.9861C77.4986 60.3296 74.5195 67.0463 72.7861 75.2796L66.6653 104.584H153.332L147.211 75.2796C145.478 67.0463 142.499 60.3296 129.011 60.3296Z" stroke="#522F89" stroke-width="8" stroke-linecap="round" stroke-linejoin="round"/>
<path d="M164.111 152.359C164.707 158.697 159.615 164.168 153.115 164.168H142.932C137.082 164.168 136.269 161.676 135.24 158.589L134.157 155.339C132.64 150.897 131.665 147.918 123.865 147.918H96.1319C88.3319 147.918 87.1944 151.276 85.8402 155.339L84.7569 158.589C83.7277 161.676 82.9152 164.168 77.0652 164.168H66.8819C60.3819 164.168 55.2902 158.697 55.8861 152.359L58.9194 119.372C59.6777 111.247 61.2486 104.584 75.4402 104.584H144.557C158.749 104.584 160.319 111.247 161.078 119.372L164.111 152.359Z" stroke="#522F89" stroke-width="8" stroke-linecap="round" stroke-linejoin="round"/>
<path d="M66.6667 88.3306H61.25" stroke="#522F89" stroke-width="8" stroke-linecap="round" stroke-linejoin="round"/>
<path d="M158.751 88.3306H153.335" stroke="#522F89" stroke-width="8" stroke-linecap="round" stroke-linejoin="round"/>
<path d="M110 61.25V72.0833" stroke="#522F89" stroke-width="8" stroke-linecap="round" stroke-linejoin="round"/>
<path d="M101.875 72.0845H118.125" stroke="#522F89" stroke-width="8" stroke-linecap="round" stroke-linejoin="round"/>
<path d="M77.5 126.25H93.75" stroke="#522F89" stroke-width="8" stroke-linecap="round" stroke-linejoin="round"/>
<path d="M126.25 126.25H142.5" stroke="#522F89" stroke-width="8" stroke-linecap="round" stroke-linejoin="round"/>
</svg>
