<svg width="220" height="220" viewBox="0 0 220 220" fill="none" xmlns="http://www.w3.org/2000/svg">
<circle cx="110" cy="110" r="110" fill="#FECC00"/>
<path d="M110 158.75C136.924 158.75 158.75 136.924 158.75 110C158.75 83.0761 136.924 61.25 110 61.25C83.0761 61.25 61.25 83.0761 61.25 110C61.25 136.924 83.0761 158.75 110 158.75Z" stroke="#522F89" stroke-width="8" stroke-linecap="round" stroke-linejoin="round"/>
<path d="M94.5349 99.2541C92.1783 99.2541 91 98.0568 91 95.6623C91 93.2208 92.1783 92 94.5349 92H125.465C127.822 92 129 93.2208 129 95.6623C129 98.0568 127.822 99.2541 125.465 99.2541H94.5349ZM110 136C108.106 136 107.076 135.437 106.066 134.31C105.099 133.183 105.25 131.54 105.25 129.38V110.523H94.5349C92.1783 110.523 91 109.302 91 106.86C91 104.466 92.1783 103.269 94.5349 103.269H125.465C127.822 103.269 129 104.466 129 106.86C129 109.302 127.822 110.523 125.465 110.523H114.75V129.38C114.75 131.54 114.758 133.183 113.748 134.31C112.78 135.437 111.894 136 110 136Z" fill="#522F89"/>
</svg>
