<svg width="220" height="220" viewBox="0 0 220 220" fill="none" xmlns="http://www.w3.org/2000/svg">
<circle cx="110" cy="110" r="110" fill="#FECC00"/>
<path d="M150.125 86.6406V137.422C150.125 157.734 145.047 162.812 124.734 162.812H94.2656C73.9531 162.812 68.875 157.734 68.875 137.422V86.6406C68.875 66.3281 73.9531 61.25 94.2656 61.25H124.734C145.047 61.25 150.125 66.3281 150.125 86.6406Z" stroke="#522F89" stroke-width="8" stroke-linecap="round" stroke-linejoin="round"/>
<path d="M119.656 79.0234H99.3438" stroke="#522F89" stroke-width="8" stroke-linecap="round" stroke-linejoin="round"/>
<path d="M109.5 148.086C113.847 148.086 117.371 144.562 117.371 140.215C117.371 135.868 113.847 132.344 109.5 132.344C105.153 132.344 101.629 135.868 101.629 140.215C101.629 144.562 105.153 148.086 109.5 148.086Z" stroke="#522F89" stroke-width="8" stroke-linecap="round" stroke-linejoin="round"/>
</svg>
