<svg width="220" height="220" viewBox="0 0 220 220" fill="none" xmlns="http://www.w3.org/2000/svg">
<circle cx="110" cy="110" r="110" fill="#FECC00"/>
<path fill-rule="evenodd" clip-rule="evenodd" d="M105.633 129.886H61.1686C58.9353 129.886 57.126 128.077 57.126 125.844V69.2521C57.126 67.0198 58.9353 65.2095 61.1686 65.2095H158.184C160.416 65.2095 162.225 67.0198 162.225 69.2521V125.844C162.225 128.077 160.416 129.886 158.184 129.886H113.718V138.857L142.995 146.176C145.159 146.718 146.477 148.914 145.935 151.078C145.395 153.243 143.198 154.56 141.033 154.02L109.676 146.18L78.3179 154.02C76.1535 154.56 73.9571 153.243 73.4158 151.078C72.8744 148.914 74.1928 146.718 76.3572 146.176L105.633 138.857V129.886ZM65.2102 73.2947V121.802H154.141V73.2947H65.2102Z" fill="#522F89"/>
</svg>
